<svg width="100" height="100" viewBox="0 0 100 100" xmlns="http://www.w3.org/2000/svg"><defs><clipPath id="round-corner"><rect x="0" y="0" width="100" height="82" rx="5" ry="5"></rect></clipPath></defs><rect x="10" y="10" width="80" height="80" clip-path="url(#round-corner)" fill="#01b7ff" rx="36"></rect><rect x="10" y="45" width="80" height="80" clip-path="url(#round-corner)" fill="#01b7ff"></rect><polyline points="13,82 22.25,92 31.5,82 13,82" fill="#01b7ff" stroke="#01b7ff" stroke-width="5" stroke-linejoin="round" stroke-linecap="round"></polyline><polyline points="31.5,82 40.75,92 50,82 31.5,82" fill="#01b7ff" stroke="#01b7ff" stroke-width="5" stroke-linejoin="round" stroke-linecap="round"></polyline><polyline points="50,82 59.25,92 68.5,82 50,82" fill="#01b7ff" stroke="#01b7ff" stroke-width="5" stroke-linejoin="round" stroke-linecap="round"></polyline><polyline points="68.5,82 77.75,92 87,82 68.5,82" fill="#01b7ff" stroke="#01b7ff" stroke-width="5" stroke-linejoin="round" stroke-linecap="round"></polyline><svg width="100" height="100" viewBox="0 0 100 100" xmlns="http://www.w3.org/2000/svg"><circle cx="36.40338102051019" cy="43.35314752887541" r="6" fill="white"></circle><circle cx="65.59774639787304" cy="43.51827629221445" r="6" fill="white"></circle><polyline points="30,60.49848346366193 40,70.49848346366193 50,60.49848346366193 60,70.49848346366193 70,60.49848346366193" fill="none" stroke="white" stroke-width="5"></polyline></svg></svg>